<svg width="1108" height="131" viewBox="0 0 1108 131" fill="none" xmlns="http://www.w3.org/2000/svg">
<path d="M120.204 101.736H126.684V128.304H63.18V101.736H72.9L70.308 88.776H48.276L45.684 101.736H55.404V128.304H0V101.736H6.48L33.858 2.268H92.826L120.204 101.736ZM51.84 71.604H66.744L60.102 39.366H58.482L51.84 71.604Z" fill="#E64310"/>
<path d="M156.114 101.736H164.214V28.836H156.114V2.268H230.472C244.404 2.268 255.042 5.13 262.386 10.854C269.73 16.578 273.402 25.866 273.402 38.718C273.402 45.954 271.944 52.218 269.028 57.51C266.112 62.802 261.954 66.474 256.554 68.526L256.716 70.146C267.084 71.766 272.268 78.138 272.268 89.262V101.736H279.882V128.304H228.528V90.234C228.528 86.022 227.88 82.836 226.584 80.676C225.396 78.516 223.452 77.058 220.752 76.302C218.16 75.546 214.434 75.168 209.574 75.168V101.736H220.266V128.304H156.114V101.736ZM218.322 55.404C221.454 55.404 223.776 54.594 225.288 52.974C226.908 51.246 227.718 48.6 227.718 45.036V39.204C227.718 35.64 226.908 33.048 225.288 31.428C223.776 29.7 221.454 28.836 218.322 28.836H209.574V55.404H218.322Z" fill="#E64310"/>
<path d="M424.98 41.472H397.116V28.836H386.748V101.736H398.088V128.304H330.048V101.736H341.388V28.836H331.02V41.472H303.156V2.268H424.98V41.472Z" fill="#E64310"/>
<path d="M593.343 2.268H645.183V28.836H638.703L614.565 128.304H566.127L551.385 58.32H549.765L534.213 128.304H485.775L460.017 28.836H453.537V2.268H513.477V28.836H507.321L513.639 70.146H515.259L530.649 2.268H577.305L591.561 70.146H593.181L599.499 28.836H593.343V2.268Z" fill="#E64310"/>
<path d="M732.42 130.572C712.656 130.572 697.374 125.388 686.574 115.02C675.882 104.652 670.536 88.074 670.536 65.286C670.536 42.498 675.882 25.92 686.574 15.552C697.374 5.184 712.656 0 732.42 0C752.184 0 767.412 5.184 778.104 15.552C788.904 25.92 794.304 42.498 794.304 65.286C794.304 88.074 788.904 104.652 778.104 115.02C767.412 125.388 752.184 130.572 732.42 130.572ZM732.42 101.736C736.092 101.736 738.846 100.764 740.682 98.82C742.518 96.876 743.436 93.852 743.436 89.748V40.824C743.436 36.72 742.518 33.696 740.682 31.752C738.846 29.808 736.092 28.836 732.42 28.836C728.748 28.836 725.994 29.808 724.158 31.752C722.322 33.696 721.404 36.72 721.404 40.824V89.748C721.404 93.96 722.322 97.038 724.158 98.982C725.994 100.818 728.748 101.736 732.42 101.736Z" fill="#E64310"/>
<path d="M824.11 101.736H832.211V28.836H824.11V2.268H898.469C912.401 2.268 923.039 5.13 930.383 10.854C937.727 16.578 941.398 25.866 941.398 38.718C941.398 45.954 939.94 52.218 937.024 57.51C934.108 62.802 929.95 66.474 924.55 68.526L924.712 70.146C935.08 71.766 940.264 78.138 940.264 89.262V101.736H947.878V128.304H896.524V90.234C896.524 86.022 895.877 82.836 894.581 80.676C893.393 78.516 891.448 77.058 888.748 76.302C886.156 75.546 882.43 75.168 877.57 75.168V101.736H888.263V128.304H824.11V101.736ZM886.318 55.404C889.45 55.404 891.772 54.594 893.284 52.974C894.904 51.246 895.714 48.6 895.714 45.036V39.204C895.714 35.64 894.904 33.048 893.284 31.428C891.772 29.7 889.45 28.836 886.318 28.836H877.57V55.404H886.318Z" fill="#E64310"/>
<path d="M1099.32 101.736H1107.42V128.304H1063.19L1038.89 78.084L1031.44 84.24V101.736H1039.21V128.304H977.979V101.736H986.079V28.836H977.979V2.268H1039.21V28.836H1031.44V50.22L1056.55 28.836H1046.34V2.268H1106.61V28.836H1098.51L1071.45 51.192L1099.32 101.736Z" fill="#E64310"/>
<path fill-rule="evenodd" clip-rule="evenodd" d="M117.918 104.736L90.5402 5.268H36.1438L8.76583 104.736H3V125.304H52.404V104.736H42.0246L45.8166 85.776H72.7674L76.5594 104.736H66.18V125.304H123.684V104.736H117.918ZM33.858 2.268H92.826L120.204 101.736H126.684V128.304H63.18V101.736H72.9L70.308 88.776H48.276L45.684 101.736H55.404V128.304H0V101.736H6.48L33.858 2.268ZM48.1589 74.604L56.0371 36.366H62.5469L70.4251 74.604H48.1589ZM258.891 67.4979C263.168 65.3407 266.547 62.0114 269.028 57.51C271.944 52.218 273.402 45.954 273.402 38.718C273.402 25.866 269.73 16.578 262.386 10.854C255.042 5.13 244.404 2.268 230.472 2.268H156.114V28.836H164.214V101.736H156.114V128.304H220.266V101.736H209.574V75.168C210.627 75.168 211.627 75.1858 212.574 75.2213C215.995 75.3496 218.721 75.7099 220.752 76.302C223.452 77.058 225.396 78.516 226.584 80.676C227.88 82.836 228.528 86.022 228.528 90.234V128.304H279.882V101.736H272.268V89.262C272.268 79.0784 267.923 72.8773 259.234 70.6587C258.58 70.4919 257.902 70.3475 257.199 70.2257C257.039 70.198 256.878 70.1714 256.716 70.146L256.554 68.526C256.702 68.4697 256.849 68.4121 256.996 68.3533C257.646 68.0922 258.277 67.8071 258.891 67.4979ZM276.882 104.736H269.268V89.262C269.268 84.146 268.077 80.5217 266.052 78.0333C264.047 75.568 260.914 73.8384 256.252 73.11L253.961 72.752L253.34 66.5379L255.488 65.7217C260.19 63.9347 263.81 60.7623 266.4 56.0622C269.028 51.2935 270.402 45.5475 270.402 38.718C270.402 26.4167 266.905 18.1798 260.541 13.2202C253.929 8.06658 244.052 5.268 230.472 5.268H159.114V25.836H167.214V104.736H159.114V125.304H217.266V104.736H206.574V72.168H209.574C214.521 72.168 218.577 72.5455 221.576 73.4174C224.909 74.3544 227.554 76.2485 229.185 79.181C230.869 82.0185 231.528 85.8281 231.528 90.234V125.304H276.882V104.736ZM209.574 55.404V28.836H218.322C221.454 28.836 223.776 29.7 225.288 31.428C226.908 33.048 227.718 35.64 227.718 39.204V45.036C227.718 48.6 226.908 51.246 225.288 52.974C223.776 54.594 221.454 55.404 218.322 55.404H209.574ZM227.476 55.0258C225.195 57.4665 221.931 58.404 218.322 58.404H206.574V25.836H218.322C221.954 25.836 225.214 26.8411 227.479 29.378C229.853 31.8032 230.718 35.3131 230.718 39.204V45.036C230.718 48.9862 229.828 52.5176 227.476 55.0258ZM331.02 28.836H341.388V101.736H330.048V128.304H398.088V101.736H386.748V28.836H397.116V41.472H424.98V2.268H303.156V41.472H331.02V28.836ZM328.02 38.472V25.836H344.388V104.736H333.048V125.304H395.088V104.736H383.748V25.836H400.116V38.472H421.98V5.268H306.156V38.472H328.02ZM638.703 28.836H645.183V2.268H593.343V28.836H599.499L593.181 70.146H591.561L577.305 2.268H530.649L515.259 70.146H513.639L507.321 28.836H513.477V2.268H453.537V28.836H460.017L485.775 128.304H534.213L549.765 58.32H551.385L566.127 128.304H614.565L638.703 28.836ZM612.206 125.304L636.344 25.836H642.183V5.268H596.343V25.836H602.992L595.757 73.146H589.125L574.869 5.268H533.045L517.655 73.146H511.063L503.827 25.836H510.477V5.268H456.537V25.836H462.339L488.097 125.304H531.806L547.358 55.32H553.819L568.561 125.304H612.206ZM778.104 15.552C767.412 5.184 752.184 0 732.42 0C712.656 0 697.374 5.184 686.574 15.552C675.882 25.92 670.536 42.498 670.536 65.286C670.536 88.074 675.882 104.652 686.574 115.02C697.374 125.388 712.656 130.572 732.42 130.572C752.184 130.572 767.412 125.388 778.104 115.02C788.904 104.652 794.304 88.074 794.304 65.286C794.304 42.498 788.904 25.92 778.104 15.552ZM688.659 112.863C678.799 103.299 673.536 87.6835 673.536 65.286C673.536 42.8885 678.798 27.2731 688.659 17.709C698.739 8.03627 713.18 3 732.42 3C751.667 3 766.047 8.0393 776.015 17.7057L776.021 17.7109L776.026 17.7162C785.99 27.2811 791.304 42.8932 791.304 65.286C791.304 87.6788 785.99 103.291 776.026 112.856L776.021 112.861L776.015 112.866C766.047 122.533 751.667 127.572 732.42 127.572C713.18 127.572 698.74 122.536 688.659 112.863ZM722.006 101.073L721.977 101.042C719.383 98.295 718.404 94.3028 718.404 89.748V40.824C718.404 36.3517 719.394 32.4271 721.977 29.6921C724.566 26.9507 728.24 25.836 732.42 25.836C736.599 25.836 740.274 26.9507 742.863 29.6921C745.446 32.4271 746.436 36.3517 746.436 40.824V89.748C746.436 94.2203 745.446 98.145 742.863 100.88C740.274 103.621 736.599 104.736 732.42 104.736C728.285 104.736 724.633 103.7 722.036 101.103L722.006 101.073ZM926.888 67.4979C931.165 65.3407 934.544 62.0114 937.024 57.51C939.94 52.218 941.398 45.954 941.398 38.718C941.398 25.866 937.727 16.578 930.383 10.854C923.039 5.13 912.401 2.268 898.469 2.268H824.11V28.836H832.211V101.736H824.11V128.304H888.263V101.736H877.57V75.168C878.624 75.168 879.624 75.1858 880.57 75.2213C883.992 75.3496 886.718 75.7099 888.748 76.302C891.448 77.058 893.393 78.516 894.581 80.676C895.877 82.836 896.524 86.022 896.524 90.234V128.304H947.878V101.736H940.264V89.262C940.264 79.0784 935.92 72.8773 927.231 70.6587C926.577 70.4919 925.899 70.3475 925.196 70.2257C925.036 70.198 924.875 70.1714 924.712 70.146L924.55 68.526C924.699 68.4697 924.846 68.4121 924.993 68.3533C925.643 68.0922 926.274 67.8071 926.888 67.4979ZM944.878 104.736H937.264V89.262C937.264 84.146 936.074 80.5217 934.049 78.0333C932.044 75.568 928.911 73.8384 924.249 73.11L921.958 72.752L921.337 66.5379L923.485 65.7217C928.187 63.9347 931.807 60.7623 934.397 56.0622C937.025 51.2935 938.398 45.5475 938.398 38.718C938.398 26.4167 934.902 18.1798 928.538 13.2202C921.926 8.06658 912.049 5.268 898.469 5.268H827.11V25.836H835.211V104.736H827.11V125.304H885.263V104.736H874.57V72.168H877.57C882.518 72.168 886.574 72.5455 889.573 73.4175C892.907 74.3546 895.552 76.249 897.183 79.1821C898.866 82.0195 899.524 85.8287 899.524 90.234V125.304H944.878V104.736ZM877.57 55.404V28.836H886.318C889.451 28.836 891.772 29.7 893.284 31.428C894.904 33.048 895.714 35.64 895.714 39.204V45.036C895.714 48.6 894.904 51.246 893.284 52.974C891.772 54.594 889.451 55.404 886.318 55.404H877.57ZM895.478 55.021C893.196 57.4653 889.931 58.404 886.318 58.404H874.57V25.836H886.318C889.951 25.836 893.211 26.8411 895.477 29.3782C897.85 31.8033 898.714 35.3132 898.714 39.204V45.036C898.714 48.9836 897.826 52.513 895.478 55.021ZM1097.55 104.736L1067.63 50.4631L1097.43 25.836H1103.61V5.268H1049.34V25.836H1064.7L1028.44 56.7153V25.836H1036.21V5.268H980.979V25.836H989.079V104.736H980.979V125.304H1036.21V104.736H1028.44V82.827L1039.93 73.3371L1065.07 125.304H1104.42V104.736H1097.55ZM1063.19 128.304L1038.89 78.084L1031.44 84.24V101.736H1039.21V128.304H977.979V101.736H986.079V28.836H977.979V2.268H1039.21V28.836H1031.44V50.22L1056.55 28.836H1046.34V2.268H1106.61V28.836H1098.51L1071.45 51.192L1099.32 101.736H1107.42V128.304H1063.19ZM66.744 71.604L60.102 39.366H58.482L51.84 71.604H66.744ZM724.158 98.982C722.322 97.038 721.404 93.96 721.404 89.748V40.824C721.404 36.72 722.322 33.696 724.158 31.752C725.994 29.808 728.748 28.836 732.42 28.836C736.092 28.836 738.846 29.808 740.682 31.752C742.518 33.696 743.436 36.72 743.436 40.824V89.748C743.436 93.852 742.518 96.876 740.682 98.82C738.846 100.764 736.092 101.736 732.42 101.736C728.748 101.736 725.994 100.818 724.158 98.982Z" fill="#FFB800"/>
<circle cx="21.5" cy="114.5" r="7.5" fill="#FFB800"/>
<circle cx="28.5" cy="88.5" r="7.5" fill="#FFB800"/>
<circle cx="35.5" cy="62.5" r="7.5" fill="#FFB800"/>
<circle cx="43.5" cy="36.5" r="7.5" fill="#FFB800"/>
<circle cx="58.5" cy="15.5" r="7.5" fill="#FFB800"/>
<circle cx="79.5" cy="36.5" r="7.5" fill="#FFB800"/>
<circle cx="87.5" cy="57.5" r="7.5" fill="#FFB800"/>
<circle cx="94.5" cy="81.5" r="7.5" fill="#FFB800"/>
<circle cx="101.5" cy="107.5" r="7.5" fill="#FFB800"/>
<circle cx="188.5" cy="115.5" r="7.5" fill="#FFB800"/>
<circle cx="854.5" cy="115.5" r="7.5" fill="#FFB800"/>
<circle cx="188.5" cy="88.5" r="7.5" fill="#FFB800"/>
<circle cx="854.5" cy="88.5" r="7.5" fill="#FFB800"/>
<circle cx="188.5" cy="62.5" r="7.5" fill="#FFB800"/>
<circle cx="854.5" cy="62.5" r="7.5" fill="#FFB800"/>
<circle cx="188.5" cy="36.5" r="7.5" fill="#FFB800"/>
<circle cx="854.5" cy="36.5" r="7.5" fill="#FFB800"/>
<circle cx="188.5" cy="15.5" r="7.5" fill="#FFB800"/>
<circle cx="854.5" cy="15.5" r="7.5" fill="#FFB800"/>
<circle cx="216.5" cy="15.5" r="7.5" fill="#FFB800"/>
<circle cx="882.5" cy="15.5" r="7.5" fill="#FFB800"/>
<circle cx="244.5" cy="23.5" r="7.5" fill="#FFB800"/>
<circle cx="910.5" cy="23.5" r="7.5" fill="#FFB800"/>
<circle cx="244.5" cy="50.5" r="7.5" fill="#FFB800"/>
<circle cx="910.5" cy="50.5" r="7.5" fill="#FFB800"/>
<circle cx="237.5" cy="69.5" r="7.5" fill="#FFB800"/>
<circle cx="903.5" cy="69.5" r="7.5" fill="#FFB800"/>
<circle cx="251.5" cy="89.5" r="7.5" fill="#FFB800"/>
<circle cx="917.5" cy="89.5" r="7.5" fill="#FFB800"/>
<circle cx="252.5" cy="114.5" r="7.5" fill="#FFB800"/>
<circle cx="918.5" cy="114.5" r="7.5" fill="#FFB800"/>
<circle cx="1012.5" cy="119.5" r="7.5" fill="#FFB800"/>
<circle cx="1011.5" cy="92.5" r="7.5" fill="#FFB800"/>
<circle cx="1011.5" cy="64.5" r="7.5" fill="#FFB800"/>
<circle cx="1042.5" cy="58.5" r="7.5" fill="#FFB800"/>
<circle cx="1063.5" cy="42.5" r="7.5" fill="#FFB800"/>
<circle cx="1063.5" cy="77.5" r="7.5" fill="#FFB800"/>
<circle cx="1076.5" cy="105.5" r="7.5" fill="#FFB800"/>
<circle cx="1091.5" cy="114.5" r="7.5" fill="#FFB800"/>
<circle cx="1078.5" cy="16.5" r="7.5" fill="#FFB800"/>
<circle cx="1011.5" cy="38.5" r="7.5" fill="#FFB800"/>
<circle cx="1011.5" cy="16.5" r="7.5" fill="#FFB800"/>
<circle cx="316.5" cy="31.5" r="7.5" fill="#FFB800"/>
<circle cx="316.5" cy="14.5" r="7.5" fill="#FFB800"/>
<circle cx="344.5" cy="14.5" r="7.5" fill="#FFB800"/>
<circle cx="379.5" cy="14.5" r="7.5" fill="#FFB800"/>
<circle cx="364.5" cy="39.5" r="7.5" fill="#FFB800"/>
<circle cx="364.5" cy="58.5" r="7.5" fill="#FFB800"/>
<circle cx="364.5" cy="82.5" r="7.5" fill="#FFB800"/>
<circle cx="364.5" cy="114.5" r="7.5" fill="#FFB800"/>
<circle cx="344.5" cy="115.5" r="7.5" fill="#FFB800"/>
<circle cx="387.5" cy="115.5" r="7.5" fill="#FFB800"/>
<circle cx="476.5" cy="16.5" r="7.5" fill="#FFB800"/>
<circle cx="483.5" cy="38.5" r="7.5" fill="#FFB800"/>
<circle cx="491.5" cy="66.5" r="7.5" fill="#FFB800"/>
<circle cx="498.5" cy="89.5" r="7.5" fill="#FFB800"/>
<circle cx="506.5" cy="115.5" r="7.5" fill="#FFB800"/>
<circle cx="524.5" cy="88.5" r="7.5" fill="#FFB800"/>
<circle cx="536.5" cy="57.5" r="7.5" fill="#FFB800"/>
<circle cx="546.5" cy="28.5" r="7.5" fill="#FFB800"/>
<circle cx="566.5" cy="28.5" r="7.5" fill="#FFB800"/>
<circle cx="573.5" cy="55.5" r="7.5" fill="#FFB800"/>
<circle cx="580.5" cy="80.5" r="7.5" fill="#FFB800"/>
<circle cx="587.5" cy="107.5" r="7.5" fill="#FFB800"/>
<circle cx="602.5" cy="82.5" r="7.5" fill="#FFB800"/>
<circle cx="610.5" cy="59.5" r="7.5" fill="#FFB800"/>
<circle cx="618.5" cy="30.5" r="7.5" fill="#FFB800"/>
<circle cx="733.5" cy="14.5" r="7.5" fill="#FFB800"/>
<circle cx="710.5" cy="24.5" r="7.5" fill="#FFB800"/>
<circle cx="695.5" cy="45.5" r="7.5" fill="#FFB800"/>
<circle cx="695.5" cy="75.5" r="7.5" fill="#FFB800"/>
<circle cx="706.5" cy="104.5" r="7.5" fill="#FFB800"/>
<circle cx="733.5" cy="119.5" r="7.5" fill="#FFB800"/>
<circle cx="760.5" cy="105.5" r="7.5" fill="#FFB800"/>
<circle cx="773.5" cy="75.5" r="7.5" fill="#FFB800"/>
<circle cx="773.5" cy="45.5" r="7.5" fill="#FFB800"/>
<circle cx="767.5" cy="22.5" r="7.5" fill="#FFB800"/>
<circle cx="413.5" cy="14.5" r="7.5" fill="#FFB800"/>
<circle cx="413.5" cy="31.5" r="7.5" fill="#FFB800"/>
</svg>
