<svg width="60" height="107" viewBox="0 0 60 107" fill="none" xmlns="http://www.w3.org/2000/svg">
<path d="M57.9401 2.07833C57.2915 1.41953 56.521 0.896843 55.6727 0.540208C54.8244 0.183574 53.915 0 52.9965 0C52.0781 0 51.1687 0.183574 50.3204 0.540208C49.4721 0.896843 48.7016 1.41953 48.053 2.07833L1.63358 49.1081C1.11574 49.6316 0.70491 50.2535 0.424599 50.9382C0.144287 51.6228 0 52.3568 0 53.098C0 53.8392 0.144287 54.5731 0.424599 55.2577C0.70491 55.9424 1.11574 56.5643 1.63358 57.0878L48.053 104.118C50.7901 106.891 55.203 106.891 57.9401 104.118C60.6772 101.344 60.6772 96.8735 57.9401 94.1004L17.4977 53.0697L57.996 12.0389C60.6772 9.32238 60.6772 4.79485 57.9401 2.07833Z" fill="white"/>
</svg>
